<svg id="Layer_1" data-name="Layer 1" xmlns="http://www.w3.org/2000/svg" viewBox="0 0 97.56 25.99"><defs><style>.cls-1{fill:#fff;}</style></defs><title>pebblelogow</title><path class="cls-1" d="M8.41,6C7.43,6,6.48,7.23,6,7.9c-2.3,3.69-4.36,11.54-4.36,15.81,0,2.06,0,3.28,1.15,3.28,1.89,0,3.89-.34,3.89-2l.34-6.33c0-1.42,1.79-7.62,1.79-10.87C8.85,6.89,8.72,6,8.41,6Z" transform="translate(-1 -1)"/><path class="cls-1" d="M10.65,1C7,1,3.44,2.83,2.12,4.35A3.94,3.94,0,0,0,1,6.25c0,.23.17.37.44.37,2.1,0,3.49-2.37,8.36-2.37,3.86,0,5.92,1.66,5.92,4.6,0,8-6.7,5.28-6.7,7,0,1.36,2.23,1.52,3.62,1.52A8.61,8.61,0,0,0,21,8.78C21,4.82,18,1,10.65,1Z" transform="translate(-1 -1)"/><path class="cls-1" d="M98.08,18.6c-.78,0-3,4.2-7.48,4.2-1.25,0-3.25-.41-3.25-2.27v-.85c3.59-1.66,7.92-2.2,7.92-6.19,0-1.9-1.38-3.25-3.92-3.25-4.43,0-8.47,4.17-8.93,10.06a5.89,5.89,0,0,1-4.51,2.36C76.22,22.66,75,21.51,75,19V17.65c4.23-5.52,9.41-9.2,9.41-13.37a2.83,2.83,0,0,0-3.12-3c-6.71,0-10.79,9.54-11.08,17.65-.63.78-1.46,2.56-2.63,2.56-2.54,0-1.25-7.31-4.63-7.31-1.05,0-2.31,2-2.68,3.31.81.92,1.93,1.86,1.93,3.42,0,1.35-.44,2.84-2,2.84-1,0-2.37-.61-2.37-4.06a22.53,22.53,0,0,1,1.6-8.43c5.17-.33,10.15-1.86,10.15-6,0-2.23-1.69-4-4.81-4s-6.36,3.18-8.66,7.45a18.78,18.78,0,0,0-3-.75c-.3,0-.44.31-.44.61,0,.58,1.08,1.39,2.51,2A26.08,26.08,0,0,0,53,18.67c-.66.5-1.55,2.81-2.88,2.81-2.54,0-1.25-7.31-4.64-7.31-1,0-2.3,2-2.67,3.31.81.92,1.93,1.86,1.93,3.42,0,1.35-.44,2.84-2,2.84-1,0-2.37-.61-2.37-4.06a22.73,22.73,0,0,1,1.59-8.43c5.18-.33,10.16-1.86,10.16-6,0-2.23-1.69-4-4.81-4s-6.36,3.18-8.66,7.45a19.05,19.05,0,0,0-3-.75c-.3,0-.44.31-.44.61,0,.58,1.08,1.39,2.5,2A25.71,25.71,0,0,0,35.43,19c-1.11,1.06-3.26,3.77-6.84,3.77-1.26,0-3.25-.41-3.25-2.27v-.85c3.59-1.66,7.92-2.2,7.92-6.19,0-1.9-1.39-3.25-3.93-3.25-4.7,0-9,4.7-9,11.17,0,3.69,2.95,5.28,6,5.28,5.14,0,7.94-2.2,9.24-4.24.84,3.3,3.85,4.34,6.5,4.34,3.19,0,5-1.46,5.76-3.32a4,4,0,0,0,2.47.68,3.58,3.58,0,0,0,2.83-1.48c.91,3.12,3.85,4.12,6.44,4.12,3.19,0,5-1.46,5.76-3.32a4,4,0,0,0,2.47.68,3.6,3.6,0,0,0,2.86-1.52c1.07,2.8,3.82,4,6.72,4a7.77,7.77,0,0,0,5.5-2.78c1,2,3.19,2.88,5.47,2.88,7.75,0,10.19-5,10.19-6.91C98.56,19,98.42,18.6,98.08,18.6Zm-8-5.35c.71,0,1,.34,1,.85,0,1.38-1.59,2-3.49,3.25C87.93,15.21,88.67,13.25,90,13.25ZM80.18,4.59c.4,0,.57.23.57.74,0,2.1-2.27,3.42-5.31,8.09C76.42,7.8,78.72,4.59,80.18,4.59ZM65,4.59c.55,0,.82.54.82,1.18,0,1.93-2.85,3.08-5.55,3.56C61.9,6.35,63.89,4.59,65,4.59Zm-17.5,0c.54,0,.81.54.81,1.18,0,1.93-2.84,3.08-5.55,3.56C44.4,6.35,46.39,4.59,47.54,4.59ZM28,13.25c.71,0,1,.34,1,.85,0,1.38-1.59,2-3.49,3.25C25.91,15.21,26.66,13.25,28,13.25Z" transform="translate(-1 -1)"/></svg>